<svg id="Layer_1" data-name="Layer 1" xmlns="http://www.w3.org/2000/svg" viewBox="0 0 381.86 130.94"><defs><style>.cls-1{fill:#231f20;}</style></defs><title>One Color Positive</title><path class="cls-1" d="M469.1,329.1c.14,1.39,1.29,5.2-.23,6.25-.92-.52-.39-2.23-.67-3.11-.37-1.19-1-9.45-1-10.38-.35-5.48-.83-10.92-.27-16.56,0-.12.21-.08.23-.22.17,0,.17.1.31.11.93,2.7,1.06,6.06,1.53,8.89C469.29,316.05,468.89,327,469.1,329.1ZM215.64,311.34a13.76,13.76,0,0,0,1.91-7,4.85,4.85,0,0,0-1.77-4.25,7.27,7.27,0,0,0-4.34-1.35,9.32,9.32,0,0,0-3.93.85,17.7,17.7,0,0,0-3.67,2.24,29.78,29.78,0,0,0-3.26,3c-1,1.06-1.91,2.08-2.69,3l-.06,7c0,1.95,0,3.73-.05,5.34s0,3.2,0,4.74a69,69,0,0,0,6.73-3.29,34.46,34.46,0,0,0,6.35-4.53A24.47,24.47,0,0,0,215.64,311.34ZM484.85,275c1.7,4.94,1.83,12.64,1.81,17.84-.07,8-.33,16-.62,23.95-.49,13.55,3.14,31.51-8,41.91-4.17,3.9-11.12,5.92-16.43,3.14-4.94-2.58-11.27.48-14.66-6A26.43,26.43,0,0,1,422,361.16a28.88,28.88,0,0,1-6.4-2.58c-2.91-1.63-2.24-2.74-5.31-.74a25.07,25.07,0,0,1-13.64,4.25,31.35,31.35,0,0,1-10.79-2,26,26,0,0,1-5.45-2.74,13.73,13.73,0,0,1-4.27,2.63,15.9,15.9,0,0,1-19.57-7.34c-5.22,12.54-29,12.3-28.08-3.56-10.54,8.33-23.65,14.77-37.22,10.91-2.65-.75-3.53-2.08-6-.74a14.3,14.3,0,0,1-3.36,1.31,12.65,12.65,0,0,1-7.85-.54c-5.46-2.25-8-7.71-9.21-13.16a18.69,18.69,0,0,1-14,6.24c-2.46,0-3.19,2.59-5.14,4.12a14.42,14.42,0,0,1-7.1,3,15.07,15.07,0,0,1-7.13-.88,11.43,11.43,0,0,1-8.82-1.08c-4.79-2.77-8.8-6.48-13-10-1.68,6.85-8,11.15-14.87,11.15-2.44,0-7.2-2.38-9.28-1.41-2.91,1.34-8.46,1.88-11.64,1.65-16-1.17-12.54-17.9-15.54-29.69-4.24,1.07-10.15,1.62-12.15,5.78q-3.13,6.54-6.28,13.09c-3.12,6.5-6.57,12.4-14.47,13-13,1-23.09-10.63-16.85-22.9,8.27-16.24,17-32.29,24.12-49.07,3.32-7.82,6.46-15.56,9.41-23.52,2.86-7.7,8.16-16,16.62-18.19,20.89-5.41,21.9,20.67,23.41,34.09.44,3.92.88,7.84,1.29,11.76,2.81.35,7.7-6,10.43-7.67,7.19-4.49,16-7,24.39-4.87a21,21,0,0,1,9.84,5.6c2.84,2.9,6.6.14,10.76,1.17,8.51,2.11,11,10.84,12.41,18.42,3-9.11,5-23.22,16-25.69,8.28-1.87,16.34,2.6,18.41,11,5.25-5.63,12.62-10,20.55-9.66a17.75,17.75,0,0,1,9.85,3.34c3.71,2.59,2.5,2.83,6.91,1.86,5-1.09,10.05-2.11,15.06-3.22,3.73-.84,10.33-.62,11.08-4.43a23.57,23.57,0,0,1,2-5.88,13.56,13.56,0,0,1-.65-4.09,12.37,12.37,0,0,1,4.94-9.9c2.42-1.78,5.66-1.53,7.72-3.41,4.21-3.85,9.93-6,15.36-3.08a11.8,11.8,0,0,1,4.18,3.73,18.38,18.38,0,0,1,5.55,1.06,12.26,12.26,0,0,1,6.25,5.17,12.08,12.08,0,0,1,.18,11.89c-1.34,2.48-2.56,2.2-1.81,5.07a18.57,18.57,0,0,1,.54,2.77,22.07,22.07,0,0,1,15.91,5.42c2.59,2.32,5.46-1.57,8.59-3a25.42,25.42,0,0,1,8.87-2.15c-2.05-3.31-1.94-7.77-4.28-10.49a12.67,12.67,0,0,1-2.16-11.76c1.47-5,5.93-11.38,11.61-11.78a14.49,14.49,0,0,1,7.49-15.24,15.82,15.82,0,0,1,10-1.86c3,.47,4.68,2.91,7.2,1.46A9.3,9.3,0,0,1,469.8,238c3.49,2.61,7.52,4.52,11.17,7.05,6,4.16,8.4,10.26,7.37,17.33-.29,2-2.84,4.39-4.28,5.47C481.09,270,483.75,271.79,484.85,275ZM183.77,306.92c-.4-2.15-10.53-.33-10.53-.33l-.1-1.48q0-.57-.21-2.4c-.11-1.22-.32-3.25-.6-6.09s-.71-6.69-1.25-11.52-1.25-11.05-2.13-18.66l-.09-.8c-.08-.33-.18-.71-.3-1.12a13.27,13.27,0,0,0-1.07-2.56,8.37,8.37,0,0,0-1.63-2.12,3.25,3.25,0,0,0-1.85-.91,5.91,5.91,0,0,0-4.5,1.14,16,16,0,0,0-3.83,4.2,31.36,31.36,0,0,0-2.92,6c-.85,2.29-1.59,4.37-2.2,6.18-.25.67-.43,1.22-.57,1.69a9.81,9.81,0,0,1-.6,1.57c-.2.53-.66,1.65-1.35,3.28s-1.53,3.59-2.53,5.84-2.06,4.75-3.18,7.41-2.26,5.39-3.39,8.05l-21.06,41.41a3.43,3.43,0,0,0,1,3.24,6.58,6.58,0,0,0,3.46,1.51,11,11,0,0,0,3.09,0c.92-.13,1.72-1.26,2.23-2.18,1.68-3.55,3.43-7.19,5.2-10.86s3.51-7.31,5.23-10.91l0,0a6.32,6.32,0,0,1,2.74-2.39,35.52,35.52,0,0,1,4.5-2c1.68-.65,3.54-1.26,5.53-1.84s3.88-1.08,5.63-1.51,3.43-.73,4.81-1.08a9.86,9.86,0,0,1,5.74-.05c1.35,1.76,2.45,22.63,3,24.91s.6,5.34,4.53,5c3-.28,2.68-3,2.41-5.63-.3-3-2.94-22.74-2.6-25.35.14-1,1.85-2.22,2.77-2.72C179.9,312.23,184.3,309.81,183.77,306.92Zm46.64,36.46a15.28,15.28,0,0,0-2.74-3.49c-1.24-1.24-2.65-2.5-4.2-3.77s-3.19-2.51-4.89-3.74L213.8,329c-.72-.52-1.41-1-2.07-1.4a17.87,17.87,0,0,1-1.76-1.25q2.47-2.05,4.85-4.38a35.36,35.36,0,0,0,4.24-5,25.5,25.5,0,0,0,3-5.7,18.79,18.79,0,0,0,1.18-6.5,17.15,17.15,0,0,0-.84-5.82,10.66,10.66,0,0,0-2.39-4,9.2,9.2,0,0,0-3.56-2.27A14,14,0,0,0,212,292a18.62,18.62,0,0,0-6,1,29.1,29.1,0,0,0-6.11,2.91,27.71,27.71,0,0,0-5.46,4.49,22.83,22.83,0,0,0-4,5.7q.1,5.63.33,10.82t.45,10.17c.15,3.31.3,6.55.45,9.74.11,2.21.18,4.43.23,6.65a13.24,13.24,0,0,0,.08,2.88,3.1,3.1,0,0,0,.21.58c.66,1.29,2,1.16,3.23,1.08a4.17,4.17,0,0,0,1.82-.52,3.08,3.08,0,0,0,1.2-1.34,4.88,4.88,0,0,0,.37-2.34c-.28-3.19-.48-5.93-.62-8.25s-.24-4.51-.33-6.62a55.36,55.36,0,0,1,7.37,3q3.28,1.65,5.93,3.32a50,50,0,0,1,4.78,3.43c1.43,1.17,2.75,2.27,4,3.31s2.68,2.33,4.09,3.42c1,.79,2.4,2.19,3.66,2.5a2.79,2.79,0,0,0,3.26-1.59A4,4,0,0,0,230.41,343.38Zm51.71-2.17q-1.83-11.47-3.61-22.43t-3.62-21.66a9.57,9.57,0,0,0-.33-2.74,3.78,3.78,0,0,0-1.06-1.85,3.09,3.09,0,0,0-1.92-.75,4.26,4.26,0,0,0-2.61.73,4,4,0,0,0-.79.61,11.16,11.16,0,0,0-.86,2c-.35.82-.68,1.64-1,2.47-.61,1.58-1.19,3.18-1.72,4.79-1.1,3.35-2.19,6.64-3.24,9.86-.79,2.67-1.61,5.25-2.45,7.76s-1.7,4.77-2.57,6.79a33.66,33.66,0,0,1-2.66,5.13,8.24,8.24,0,0,1-2.76,2.86,8.86,8.86,0,0,1-4.47-3.65,26.45,26.45,0,0,1-2.95-6.26,59.84,59.84,0,0,1-1.89-7.49q-.74-3.93-1.25-7.4c-.29-1.69-.58-3.25-.88-4.66a18.58,18.58,0,0,0-1.08-3.59,5.85,5.85,0,0,0-1.49-2.17,2,2,0,0,0-2-.33,2.86,2.86,0,0,0-1.47.42,1.83,1.83,0,0,0-.66.87,2.83,2.83,0,0,0-.17,1.12,10.49,10.49,0,0,1,0,1.11v.31q.21,11.87.23,22.52,0,6.12.11,12.25.06,3,.13,6c.06,2.42.62,5.05,3.67,5.08a3.13,3.13,0,0,0,2.36-1,4.2,4.2,0,0,0,1-3q0-2.85.09-5.7c0-1.9.09-3.79.16-5.69a26.64,26.64,0,0,0,1.86,3.09,14.13,14.13,0,0,0,2.32,2.6,11.17,11.17,0,0,0,2.87,1.8,9.36,9.36,0,0,0,3.58.68,6.7,6.7,0,0,0,4.59-1.69,16,16,0,0,0,3.43-4.28,35.78,35.78,0,0,0,2.51-5.56q1.06-3,1.93-5.45c1-3,2.1-6,3.12-8.9s2-5.83,3-8.75q.75,2.48,1.38,5.59t1.17,6.52q.56,3.39,1.06,6.86t.94,6.7q.43,3.48.91,6.52t1,5.32a15.57,15.57,0,0,0,1.2,3.59c.45.87,1,1.34,1.61,1.39a2.65,2.65,0,0,0,1.93-1.1,6.12,6.12,0,0,0,1-2.22,11.24,11.24,0,0,0,.33-2.61C282.11,342.74,282.12,341.93,282.12,341.21Zm81.73-66.43c-1.61,2.39-3.61,5.37-3.77,8.26a1.74,1.74,0,0,0,1,1.66,1.78,1.78,0,0,0,.5.14,1.73,1.73,0,0,0,1.42-.49,22.55,22.55,0,0,1,5.6-3.52c.94-.47,1.9-.95,2.83-1.48a56.68,56.68,0,0,1,7.72,6.42,1.72,1.72,0,0,0,2.94-1.48c-.56-3.29-2.5-6.36-4.43-9.34.64-.44,1.24-.93,1.91-1.31.91-.52,1.7-1.19,2.59-1.74a7.1,7.1,0,0,0,2.52-2c1.25-2.3-7.61-1.12-8.56-1-.64.09-1.26.18-1.88.25s-.56-4.51-.7-5.05c-.34-1.4-1.38-.36-2.17.27a20.25,20.25,0,0,0-4.06,4.87c-1.37-.1-2.72-.24-4.06-.38-1.79-.19-1.67,1.27-1,2.31.4.62,1,1.11,1.4,1.7S364.35,274,363.85,274.78ZM330.14,326.3c-2.12-1.14-5.92,3.81-8.8,6.33a66.61,66.61,0,0,1-6.51,5.21,35.48,35.48,0,0,1-7.19,3.75,21,21,0,0,1-7.75,1.39,16,16,0,0,1-2.81-.25,6.4,6.4,0,0,1-2.34-.87,4.34,4.34,0,0,1-1.56-1.7,5.68,5.68,0,0,1-.56-2.7,9.48,9.48,0,0,1,1.39-4.88,19.81,19.81,0,0,1,3.43-4.2,36.43,36.43,0,0,1,4.49-3.62c1.63-1.11,3.19-2.13,4.68-3A55.54,55.54,0,0,0,312,318q2.28-1.78,2.3-3.79a2.69,2.69,0,0,0-.45-1.69,2.64,2.64,0,0,0-1.14-.9,4.6,4.6,0,0,0-1.39-.32l-1.15-.05a8.08,8.08,0,0,0-3.63,1.05c-1.18.66-2.37,1.37-3.55,2.12a35.14,35.14,0,0,1-3.8,2.32,7.29,7.29,0,0,1-3.78.93,3.2,3.2,0,0,1-2.3-.87,2.92,2.92,0,0,1-.68-2,11.75,11.75,0,0,1,1.08-4.37,26.26,26.26,0,0,1,2.62-4.68,23.26,23.26,0,0,1,3.38-3.86,8,8,0,0,1,3.45-2,4.44,4.44,0,0,1,3.34.76,5.4,5.4,0,0,1,2.17,3,5.69,5.69,0,0,0,3.43-1,2.88,2.88,0,0,0,1.06-2.22,4.82,4.82,0,0,0-.52-2.12,8.43,8.43,0,0,0-1.48-2.13,9.17,9.17,0,0,0-2.22-1.72,6.21,6.21,0,0,0-2.65-.79,13.53,13.53,0,0,0-7.56,2.2,24.43,24.43,0,0,0-6.1,5.61,32.66,32.66,0,0,0-4.29,7.39,30.57,30.57,0,0,0-2.19,7.56,5.8,5.8,0,0,0,.44,3.36,6,6,0,0,0,1.79,2.17,7.69,7.69,0,0,0,2.45,1.21,17.79,17.79,0,0,0,2.42.56c-.21.26-.42.54-.62.84a11.2,11.2,0,0,1-.7.92c-.68.87-1.38,1.82-2.11,2.87a31.74,31.74,0,0,0-2,3.25,21.1,21.1,0,0,0-1.49,3.53,11,11,0,0,0-.54,3.77,8.89,8.89,0,0,0,1.46,5.32,11.38,11.38,0,0,0,3.78,3.38,16.56,16.56,0,0,0,5,1.82,27.76,27.76,0,0,0,5.15.54,15.11,15.11,0,0,0,4.86-1,45.26,45.26,0,0,0,6.26-2.75,65.37,65.37,0,0,0,6.65-4,46.19,46.19,0,0,0,6-4.87,28.23,28.23,0,0,0,4.36-5.28C330.24,330.22,331.8,327.21,330.14,326.3Zm43.28,20.55c-.08-.5-.16-1-.26-1.54-.15-.79-.36-2-.62-3.57s-.53-3.54-.76-5.83-.45-4.92-.62-7.87-.26-6.18-.23-9.72c0-1.57,0-3.16,0-4.77s0-3.15,0-4.62c-.06-2.35.75-6.23-1.38-8-3.18-2.58-4.31,4.85-4.38,6.38-.13,2.45-.23,5.07-.3,7.89s-.12,5.7-.12,8.67,0,5.78.08,8.44.15,5.08.29,7.24.3,3.85.49,5.07c.1.4.25.88.45,1.45a6.83,6.83,0,0,0,.83,1.61,6,6,0,0,0,1.3,1.32,3.26,3.26,0,0,0,1.92.57,4.67,4.67,0,0,0,2.23-.37,2,2,0,0,0,.94-1A2.81,2.81,0,0,0,373.42,346.85Zm2.85-52.11a3.05,3.05,0,0,0-1.67-2.9c-2.7-1.15-6-1-8.87-.7q-5.28.5-10.36,1.29t-10,1.84q-4.93,1-9.64,2.15l-3.62.81c-.88.2-1.57.35-2.08.45l-1.08.22-.55.15.08-.08c-.92.15-1.95.34-3.08.59a20,20,0,0,0-3.24,1,8.75,8.75,0,0,0-2.6,1.6,3.15,3.15,0,0,0-1.06,2.41,2.89,2.89,0,0,0,1.4,2.79c1.67.91,3.44.41,5.17,0s3.75-1,5.62-1.45q4.05-1.08,8.22-2c.22,4,.42,7.56.6,10.82s.3,6.5.37,9.71.13,6.55.15,10,0,7.39-.11,11.7c0,1.17-.47,2.92.14,4s2.14,1.19,3.29,1a3.8,3.8,0,0,0,2-.8,3.19,3.19,0,0,0,1-1.64,9.61,9.61,0,0,0,.29-2.42c0-2.47-.06-5.12-.08-8s-.06-5.74-.08-8.66-.08-5.8-.16-8.62-.16-5.44-.24-7.86-.19-4.54-.33-6.39a34.68,34.68,0,0,0-.5-4.24,11.15,11.15,0,0,0,1.24-.29c.31-.11.6-.19.88-.27l.93-.26,1.35-.37q5.32-1.33,12.11-2.7c4.13-.84,8.27-1.11,12.44-1.61C375.39,295.92,376,296.31,376.27,294.74Zm37.17,38.08a6.56,6.56,0,0,0-1.43-4.33,13.56,13.56,0,0,0-3.78-3.15A27.27,27.27,0,0,0,402.9,323c-2-.66-4-1.31-6.06-1.95-1.69-.52-3.36-1.05-5-1.58a31.49,31.49,0,0,1-4.38-1.73,11.92,11.92,0,0,1-3.09-2.1,3.53,3.53,0,0,1-1.18-2.55,11,11,0,0,1,1-4.31,13.94,13.94,0,0,1,2.45-3.82,12.82,12.82,0,0,1,3.49-2.74,8.17,8.17,0,0,1,4-1,3.54,3.54,0,0,1,3.15,1.42,7.06,7.06,0,0,1,1.09,3.28,20.61,20.61,0,0,1,0,3.92c-.14,1.36-.21,2.48-.22,3.35a5.69,5.69,0,0,0,.7,3.08,4,4,0,0,0,1.65,1.6,2.65,2.65,0,0,0,1.8.2,1.82,1.82,0,0,0,1.28-1.06c.32-1.13.59-2.16.8-3.11s.39-1.85.52-2.69.23-1.68.29-2.5.1-1.72.1-2.69a13.92,13.92,0,0,0-.65-4.48,10.36,10.36,0,0,0-2-3.63,9.68,9.68,0,0,0-3.29-2.46,10.77,10.77,0,0,0-4.49-.92,14.15,14.15,0,0,0-7.06,1.83,21.06,21.06,0,0,0-5.89,4.79,23.74,23.74,0,0,0-4,6.59,19.39,19.39,0,0,0-1.53,7.26,6.23,6.23,0,0,0,1.54,4.21,14.3,14.3,0,0,0,4,3.15,32.54,32.54,0,0,0,5.33,2.32c1.94.66,3.81,1.22,5.6,1.7s3.46.89,5.15,1.39a33,33,0,0,1,4.52,1.7,10.89,10.89,0,0,1,3.22,2.22,4.13,4.13,0,0,1,1.2,3,6.56,6.56,0,0,1-1.11,3.5,12.78,12.78,0,0,1-2.76,3.09,15.79,15.79,0,0,1-3.63,2.24,9.09,9.09,0,0,1-3.74.85,13.09,13.09,0,0,1-1.85-.13,7.18,7.18,0,0,1-1.84-.56,13.28,13.28,0,0,1-2.26-1.28,37.78,37.78,0,0,1-3.1-2.42,6.91,6.91,0,0,0-2.14,3.1,3.63,3.63,0,0,0,.28,2.66,6,6,0,0,0,2,2.17,13.73,13.73,0,0,0,3.11,1.57,23.68,23.68,0,0,0,3.53,1,17.77,17.77,0,0,0,3.27.38,12.76,12.76,0,0,0,6.17-1.6,20.66,20.66,0,0,0,5.39-4.23,22,22,0,0,0,3.82-5.82A15.71,15.71,0,0,0,413.44,332.82Zm33.57.29a6.51,6.51,0,0,0-1.43-4.32,13.75,13.75,0,0,0-3.78-3.16,27.87,27.87,0,0,0-5.33-2.35c-2-.66-4-1.31-6.06-1.94-1.69-.53-3.36-1.06-5-1.59A31.49,31.49,0,0,1,421,318a11.44,11.44,0,0,1-3.09-2.1,3.53,3.53,0,0,1-1.18-2.55,11,11,0,0,1,1-4.3,14,14,0,0,1,2.45-3.83,13,13,0,0,1,3.49-2.74,8.06,8.06,0,0,1,4-1,3.5,3.5,0,0,1,3.14,1.41,7.1,7.1,0,0,1,1.09,3.28,20.72,20.72,0,0,1,0,3.93c-.14,1.35-.21,2.47-.22,3.34a5.73,5.73,0,0,0,.7,3.09A4.07,4.07,0,0,0,434,318.1a2.6,2.6,0,0,0,1.8.21,1.86,1.86,0,0,0,1.28-1.07c.32-1.13.59-2.16.8-3.11s.39-1.84.52-2.69.23-1.68.29-2.5.1-1.72.1-2.69a13.86,13.86,0,0,0-.65-4.47,10.5,10.5,0,0,0-2-3.64,9.58,9.58,0,0,0-3.28-2.45,11,11,0,0,0-4.5-.93,14.15,14.15,0,0,0-7.06,1.83,21.27,21.27,0,0,0-5.89,4.8,23.69,23.69,0,0,0-4,6.58,19.39,19.39,0,0,0-1.53,7.26,6.21,6.21,0,0,0,1.54,4.21,13.94,13.94,0,0,0,4,3.15,32.54,32.54,0,0,0,5.33,2.32q2.91,1,5.6,1.7c1.74.43,3.46.89,5.15,1.4A31.3,31.3,0,0,1,436,329.7a10.89,10.89,0,0,1,3.22,2.22,4.15,4.15,0,0,1,1.2,3,6.55,6.55,0,0,1-1.11,3.49,13.16,13.16,0,0,1-2.75,3.09,15.72,15.72,0,0,1-3.64,2.24,9.09,9.09,0,0,1-3.74.85,13.09,13.09,0,0,1-1.85-.13,7.13,7.13,0,0,1-1.84-.55,14.14,14.14,0,0,1-2.26-1.29,39.09,39.09,0,0,1-3.1-2.41,6.89,6.89,0,0,0-2.14,3.09,3.63,3.63,0,0,0,.28,2.66,6,6,0,0,0,2,2.17,13.94,13.94,0,0,0,3.11,1.57,24,24,0,0,0,3.53,1,17,17,0,0,0,3.27.38,12.65,12.65,0,0,0,6.17-1.6,20.66,20.66,0,0,0,5.39-4.23,22.07,22.07,0,0,0,3.82-5.81A15.63,15.63,0,0,0,447,333.11Zm29-80.92c-.8-.55-6.31-2-9.46-3.72-1.89-1-.67-2.25-1.73-3.31-.72-.72-2.61-1.22-2.86-2.18-.18-.65.24-2.06-.8-1.69-.8.28-.8,1.37-.59,1.91.35.92.76,1.29,0,2.16-.95,1.06.22,2.51.62,3.22-.91.25-5.67,5.39-7.17,3,0-2.24.53-3.95-1.35-5.55-1.11-.94-1.26-2.47-2.13-3.67-1.78-2.47-6.13-1.57-8.26.47a5.2,5.2,0,0,0-1.76,4.51c.11,1.52,1.34,2.65,1.22,4.25s2.08,3.11,2.8,4.48,1.85,1.67,2.6,2.79c1,1.43-1.28,3-2.2,3.78a10.66,10.66,0,0,0-3.46,6.55c-.21.71-.43,4.88-1.26,5.72-1.52,1.54-4.1-4.94-4.7-5.86-.44-.67-.24-1.33-.4-2.08a15,15,0,0,0-2.12-5.6c-.64-.93.77-3.5-.51-3.24-1.11.53-1.24,2.09-1.32,2.92-1.55.36-3.05,2.39-2.49,5.24a3,3,0,0,0,2.1,2c.75.21,1.11.94,1.31,1.87.36,1.59,2.85,9.76,4.45,11.86.8,1.07,2,3.32,3.65,2.79,1.45-.46,5.58-5.06,6-6.44.25-.86,1.65-3.11,2.63-3.1,1.33,0,2.8,2.87,3.62,3.77.55.6,2.46,3.39,2.92,4.05.82,1.16,1.72,2,1,7.33-1,7.18.43,20.12.52,21.06s1.35,8,2,10.55c.44,1.71-.49,2.4-.56,3.93-.05,1.06.74,1.86.91,2.85.54,3.21-.79,6.53-.32,9.76a37.15,37.15,0,0,0,1,3.84,10.18,10.18,0,0,1-.23,4.28c-1,.81-1.7,2.08-2.85,2.6a6.28,6.28,0,0,0-1.87,1.77c-1.12,1.78,3.77,1.27,4.44,1.1a17.55,17.55,0,0,0,5.44-2.44c1.13-.83,1.43-2.87,3-2.89.44,2.21-3.22,3.78-2.78,6.13.5,2.56,4.75.72,6.05.24,3.34-2.65,5.47-6.13,5.35-10.4-.05-1.8,1.1-9.46,1.28-11.53.35-4.12-.58-8.3-.41-12.37.18-4.29.6-17.82.77-20.26a84.22,84.22,0,0,0-.41-12.06,95.18,95.18,0,0,0-6.14-21.2c-.64-1.41-2.16-3.87-1.85-5.5,3.37-1.07,7.43,4,10.33-.29C480.38,256.33,478.46,253.91,476,252.19ZM165.62,299.56c-.3-3.26-.67-6.67-1.09-10.13s-.87-6.59-1.35-9.48a23.47,23.47,0,0,0-1.68-6.27l-1.15-2.25L144,313.78l1.76-.1c2.57-.4,15.33-2.62,20.18-5.13l.57-.38-.07-.68C166.19,305.52,165.93,302.87,165.62,299.56Z" transform="translate(-106.71 -232.17)"/></svg>